<svg width="167" height="167" viewBox="0 0 167 167" fill="none" xmlns="http://www.w3.org/2000/svg">
<rect width="166.944" height="166.56" fill="#181717"/>
<mask id="path-1-inside-1_329_229" fill="white">
<path d="M106 23.4142H76.3822V68.2189H106V80.8048H60.9437V10.4933H106V23.4142Z"/>
</mask>
<path d="M106 23.4142H76.3822V68.2189H106V80.8048H60.9437V10.4933H106V23.4142Z" fill="#00917A"/>
<path d="M106 23.4142V23.4981H106.084V23.4142H106ZM76.3822 23.4142V23.3303H76.2983V23.4142H76.3822ZM76.3822 68.2189H76.2983V68.3028H76.3822V68.2189ZM106 68.2189H106.084V68.135H106V68.2189ZM106 80.8048V80.8887H106.084V80.8048H106ZM60.9437 80.8048H60.8598V80.8887H60.9437V80.8048ZM60.9437 10.4933V10.4094H60.8598V10.4933H60.9437ZM106 10.4933H106.084V10.4094H106V10.4933ZM106 23.4142V23.3303H76.3822V23.4142V23.4981H106V23.4142ZM76.3822 23.4142H76.2983V68.2189H76.3822H76.4661V23.4142H76.3822ZM76.3822 68.2189V68.3028H106V68.2189V68.135H76.3822V68.2189ZM106 68.2189H105.916V80.8048H106H106.084V68.2189H106ZM106 80.8048V80.7209H60.9437V80.8048V80.8887H106V80.8048ZM60.9437 80.8048H61.0276V10.4933H60.9437H60.8598V80.8048H60.9437ZM60.9437 10.4933V10.5772H106V10.4933V10.4094H60.9437V10.4933ZM106 10.4933H105.916V23.4142H106H106.084V10.4933H106Z" fill="#111010" mask="url(#path-1-inside-1_329_229)"/>
<mask id="path-3-inside-2_329_229" fill="white">
<path d="M55.5741 80.8048H10.5175V10.4933H24.4452V68.2189H41.4784V10.4933H55.5741V80.8048Z"/>
</mask>
<path d="M55.5741 80.8048H10.5175V10.4933H24.4452V68.2189H41.4784V10.4933H55.5741V80.8048Z" fill="#00917A"/>
<path d="M55.5741 80.8048V80.8887H55.658V80.8048H55.5741ZM10.5175 80.8048H10.4336V80.8887H10.5175V80.8048ZM10.5175 10.4933V10.4094H10.4336V10.4933H10.5175ZM24.4452 10.4933H24.5291V10.4094H24.4452V10.4933ZM24.4452 68.2189H24.3613V68.3028H24.4452V68.2189ZM41.4784 68.2189V68.3028H41.5623V68.2189H41.4784ZM41.4784 10.4933V10.4094H41.3945V10.4933H41.4784ZM55.5741 10.4933H55.658V10.4094H55.5741V10.4933ZM55.5741 80.8048V80.7209H10.5175V80.8048V80.8887H55.5741V80.8048ZM10.5175 80.8048H10.6014V10.4933H10.5175H10.4336V80.8048H10.5175ZM10.5175 10.4933V10.5772H24.4452V10.4933V10.4094H10.5175V10.4933ZM24.4452 10.4933H24.3613V68.2189H24.4452H24.5291V10.4933H24.4452ZM24.4452 68.2189V68.3028H41.4784V68.2189V68.135H24.4452V68.2189ZM41.4784 68.2189H41.5623V10.4933H41.4784H41.3945V68.2189H41.4784ZM41.4784 10.4933V10.5772H55.5741V10.4933V10.4094H41.4784V10.4933ZM55.5741 10.4933H55.4902V80.8048H55.5741H55.658V10.4933H55.5741Z" fill="#111010" mask="url(#path-3-inside-2_329_229)"/>
<mask id="path-5-inside-3_329_229" fill="white">
<path d="M106 156.067H91.7367V128.714H74.7045V156.067H60.9437V85.7552H106V156.067ZM74.7045 98.3412V118.897H91.7367V98.3412H74.7045Z"/>
</mask>
<path d="M106 156.067H91.7367V128.714H74.7045V156.067H60.9437V85.7552H106V156.067ZM74.7045 98.3412V118.897H91.7367V98.3412H74.7045Z" fill="#FFB804"/>
<path d="M106 156.067V156.151H106.084V156.067H106ZM91.7367 156.067H91.6528V156.151H91.7367V156.067ZM91.7367 128.714H91.8206V128.63H91.7367V128.714ZM74.7045 128.714V128.63H74.6206V128.714H74.7045ZM74.7045 156.067V156.151H74.7884V156.067H74.7045ZM60.9437 156.067H60.8598V156.151H60.9437V156.067ZM60.9437 85.7552V85.6713H60.8598V85.7552H60.9437ZM106 85.7552H106.084V85.6713H106V85.7552ZM74.7045 98.3412V98.2573H74.6206V98.3412H74.7045ZM74.7045 118.897H74.6206V118.981H74.7045V118.897ZM91.7367 118.897V118.981H91.8206V118.897H91.7367ZM91.7367 98.3412H91.8206V98.2573H91.7367V98.3412ZM106 156.067V155.983H91.7367V156.067V156.151H106V156.067ZM91.7367 156.067H91.8206V128.714H91.7367H91.6528V156.067H91.7367ZM91.7367 128.714V128.63H74.7045V128.714V128.798H91.7367V128.714ZM74.7045 128.714H74.6206V156.067H74.7045H74.7884V128.714H74.7045ZM74.7045 156.067V155.983H60.9437V156.067V156.151H74.7045V156.067ZM60.9437 156.067H61.0276V85.7552H60.9437H60.8598V156.067H60.9437ZM60.9437 85.7552V85.8391H106V85.7552V85.6713H60.9437V85.7552ZM106 85.7552H105.916V156.067H106H106.084V85.7552H106ZM74.7045 98.3412H74.6206V118.897H74.7045H74.7884V98.3412H74.7045ZM74.7045 118.897V118.981H91.7367V118.897V118.813H74.7045V118.897ZM91.7367 118.897H91.8206V98.3412H91.7367H91.6528V118.897H91.7367ZM91.7367 98.3412V98.2573H74.7045V98.3412V98.4251H91.7367V98.3412Z" fill="#111010" mask="url(#path-5-inside-3_329_229)"/>
<mask id="path-7-inside-4_329_229" fill="white">
<path d="M156.427 156.067H111.37V85.7552H156.427V156.067ZM124.795 149.271H141.827V128.714H124.795V149.271ZM124.795 98.3412V118.897H141.827V98.3412H124.795Z"/>
</mask>
<path d="M156.427 156.067H111.37V85.7552H156.427V156.067ZM124.795 149.271H141.827V128.714H124.795V149.271ZM124.795 98.3412V118.897H141.827V98.3412H124.795Z" fill="#076ABF"/>
<path d="M156.427 156.067V156.151H156.511V156.067H156.427ZM111.37 156.067H111.286V156.151H111.37V156.067ZM111.37 85.7552V85.6713H111.286V85.7552H111.37ZM156.427 85.7552H156.511V85.6713H156.427V85.7552ZM124.795 149.271H124.711V149.355H124.795V149.271ZM141.827 149.271V149.355H141.911V149.271H141.827ZM141.827 128.714H141.911V128.63H141.827V128.714ZM124.795 128.714V128.63H124.711V128.714H124.795ZM124.795 98.3412V98.2573H124.711V98.3412H124.795ZM124.795 118.897H124.711V118.981H124.795V118.897ZM141.827 118.897V118.981H141.911V118.897H141.827ZM141.827 98.3412H141.911V98.2573H141.827V98.3412ZM156.427 156.067V155.983H111.37V156.067V156.151H156.427V156.067ZM111.37 156.067H111.454V85.7552H111.37H111.286V156.067H111.37ZM111.37 85.7552V85.8391H156.427V85.7552V85.6713H111.37V85.7552ZM156.427 85.7552H156.343V156.067H156.427H156.511V85.7552H156.427ZM124.795 149.271V149.355H141.827V149.271V149.187H124.795V149.271ZM141.827 149.271H141.911V128.714H141.827H141.743V149.271H141.827ZM141.827 128.714V128.63H124.795V128.714V128.798H141.827V128.714ZM124.795 128.714H124.711V149.271H124.795H124.879V128.714H124.795ZM124.795 98.3412H124.711V118.897H124.795H124.879V98.3412H124.795ZM124.795 118.897V118.981H141.827V118.897V118.813H124.795V118.897ZM141.827 118.897H141.911V98.3412H141.827H141.743V118.897H141.827ZM141.827 98.3412V98.2573H124.795V98.3412V98.4251H141.827V98.3412Z" fill="#111010" mask="url(#path-7-inside-4_329_229)"/>
<mask id="path-9-inside-5_329_229" fill="white">
<path d="M24.5292 85.7552V143.481H55.5741V156.067H10.5175V85.7552H24.5292Z"/>
</mask>
<path d="M24.5292 85.7552V143.481H55.5741V156.067H10.5175V85.7552H24.5292Z" fill="#EF2E31"/>
<path d="M24.5292 85.7552H24.6131V85.6713H24.5292V85.7552ZM24.5292 143.481H24.4453V143.565H24.5292V143.481ZM55.5741 143.481H55.658V143.397H55.5741V143.481ZM55.5741 156.067V156.151H55.658V156.067H55.5741ZM10.5175 156.067H10.4336V156.151H10.5175V156.067ZM10.5175 85.7552V85.6713H10.4336V85.7552H10.5175ZM24.5292 85.7552H24.4453V143.481H24.5292H24.6131V85.7552H24.5292ZM24.5292 143.481V143.565H55.5741V143.481V143.397H24.5292V143.481ZM55.5741 143.481H55.4902V156.067H55.5741H55.658V143.481H55.5741ZM55.5741 156.067V155.983H10.5175V156.067V156.151H55.5741V156.067ZM10.5175 156.067H10.6014V85.7552H10.5175H10.4336V156.067H10.5175ZM10.5175 85.7552V85.8391H24.5292V85.7552V85.6713H10.5175V85.7552Z" fill="#111010" mask="url(#path-9-inside-5_329_229)"/>
<mask id="path-11-inside-6_329_229" fill="white">
<path d="M156.427 80.8048H111.37V10.4933H156.427V80.8048ZM126.054 23.0793V68.2189H141.827V23.0793H126.054Z"/>
</mask>
<path d="M156.427 80.8048H111.37V10.4933H156.427V80.8048ZM126.054 23.0793V68.2189H141.827V23.0793H126.054Z" fill="white"/>
<path d="M156.427 80.8048V80.8887H156.511V80.8048H156.427ZM111.37 80.8048H111.286V80.8887H111.37V80.8048ZM111.37 10.4933V10.4094H111.286V10.4933H111.37ZM156.427 10.4933H156.511V10.4094H156.427V10.4933ZM126.054 23.0793V22.9953H125.97V23.0793H126.054ZM126.054 68.2189H125.97V68.3028H126.054V68.2189ZM141.827 68.2189V68.3028H141.911V68.2189H141.827ZM141.827 23.0793H141.911V22.9953H141.827V23.0793ZM156.427 80.8048V80.7209H111.37V80.8048V80.8887H156.427V80.8048ZM111.37 80.8048H111.454V10.4933H111.37H111.286V80.8048H111.37ZM111.37 10.4933V10.5772H156.427V10.4933V10.4094H111.37V10.4933ZM156.427 10.4933H156.343V80.8048H156.427H156.511V10.4933H156.427ZM126.054 23.0793H125.97V68.2189H126.054H126.138V23.0793H126.054ZM126.054 68.2189V68.3028H141.827V68.2189V68.135H126.054V68.2189ZM141.827 68.2189H141.911V23.0793H141.827H141.743V68.2189H141.827ZM141.827 23.0793V22.9953H126.054V23.0793V23.1632H141.827V23.0793Z" fill="#111010" mask="url(#path-11-inside-6_329_229)"/>
</svg>
